<svg width="225" height="110" viewBox="0 0 225 110" fill="none" xmlns="http://www.w3.org/2000/svg">
<g clip-path="url(#clip0_166_1527)">
<path d="M224.697 35.518C224.332 32.712 223.543 30.1804 222.345 27.9539C221.131 25.7121 219.416 23.9431 217.17 22.6011C214.924 21.2744 212.087 20.5576 208.627 20.4356C204.379 20.3593 200.646 21.1676 197.444 22.8604C194.94 24.1871 192.755 25.9104 190.859 27.9997C190.176 24.4159 187.05 21.6556 183.211 21.6556C179.417 21.6556 176.185 24.4006 175.533 28.1522L165.852 84.1812H182.073L189.781 39.5135C189.918 39.3153 190.039 39.117 190.176 38.934C191.405 37.2413 192.907 35.884 194.698 34.8927C196.473 33.8862 198.597 33.4287 201.055 33.505C203.271 33.5507 204.97 34.0235 206.139 34.9537C207.307 35.884 208.066 37.1345 208.415 38.7053C208.764 40.2913 208.825 42.0908 208.582 44.1343L201.86 84.1812H218.126L224.803 44.3021C225.106 41.2521 225.076 38.324 224.712 35.518H224.697Z" fill="white"/>
<path d="M72.4103 84.1657H88.6161L97.933 31.0189C98.7675 26.1236 95.0347 21.6553 90.088 21.6553C86.2187 21.6553 82.9107 24.4461 82.2431 28.2891L72.3951 84.1657H72.4103Z" fill="white"/>
<path d="M108.737 21.6861C105.581 21.6861 102.895 23.9584 102.349 27.0695C101.651 31.065 104.701 34.725 108.737 34.725H129.116L96.5521 70.8679C94.9892 72.6064 93.9422 74.7567 93.5325 77.0747L92.3034 84.166H142.529L144.775 71.1729H115.383L149.631 33.1238C151.087 31.492 152.074 29.4942 152.453 27.3287L152.499 27.039C152.984 24.2329 150.845 21.6709 148.022 21.6709H108.737V21.6861Z" fill="white"/>
<path d="M146.095 84.1659H162.301L171.663 30.9886C172.498 26.0933 168.765 21.625 163.818 21.625C159.949 21.625 156.641 24.4158 155.973 28.2588L146.095 84.1659Z" fill="white"/>
<path d="M48.8299 36.7834C52.669 36.7834 56.2955 37.6984 59.4973 39.3454C63.2604 35.0601 65.5213 29.4328 65.3999 23.2565C65.1572 10.2176 54.0346 0 41.0457 0H22.6396C18.1026 0 14.2332 3.26353 13.4442 7.74708L8.31537 36.7834H48.8299Z" fill="white"/>
<path d="M6.4186 47.3972L0 84.1653H48.8299C61.8492 84.1653 72.4103 73.5512 72.4103 60.4666C72.4103 51.2402 67.1601 43.2796 59.5124 39.3604C55.1726 44.2862 48.8754 47.3819 41.8347 47.3819H6.4186" fill="white"/>
<path d="M93.3656 18.6967C98.5028 18.6967 102.667 14.5113 102.667 9.34834C102.667 4.1854 98.5028 0 93.3656 0C88.2285 0 84.064 4.1854 84.064 9.34834C84.064 14.5113 88.2285 18.6967 93.3656 18.6967Z" fill="white"/>
<path d="M167.005 18.6967C172.142 18.6967 176.307 14.5113 176.307 9.34834C176.307 4.1854 172.142 0 167.005 0C161.868 0 157.703 4.1854 157.703 9.34834C157.703 14.5113 161.868 18.6967 167.005 18.6967Z" fill="white"/>
<path d="M92.4855 94.1699H98.7372C100.588 94.1699 102.106 94.5359 103.289 95.2679C104.473 95.9999 105.065 97.2505 105.065 99.0347C105.065 100.819 104.488 101.978 103.335 102.802C102.182 103.625 100.634 104.037 98.6916 104.037H95.6113V109.435H92.4855V94.1852V94.1699ZM100.755 100.88C101.211 100.758 101.529 100.56 101.696 100.27C101.863 99.9802 101.939 99.5837 101.939 99.0652C101.939 98.5467 101.848 98.1502 101.696 97.891C101.529 97.6317 101.211 97.4335 100.755 97.3267C100.285 97.2047 99.6021 97.159 98.6765 97.159H95.6113V101.078H98.6916C99.6021 101.078 100.285 101.017 100.755 100.895V100.88Z" fill="white"/>
<path d="M110.527 108.718C109.329 108.093 108.388 107.178 107.735 105.988C107.068 104.799 106.734 103.396 106.734 101.764C106.734 100.132 107.068 98.7293 107.735 97.5245C108.403 96.3198 109.344 95.4048 110.543 94.7795C111.741 94.1542 113.137 93.834 114.7 93.834C116.263 93.834 117.689 94.1542 118.903 94.7795C120.102 95.4048 121.043 96.3198 121.711 97.5093C122.378 98.6988 122.712 100.102 122.712 101.718C122.712 103.335 122.378 104.784 121.726 105.973C121.073 107.163 120.132 108.078 118.934 108.703C117.72 109.328 116.324 109.648 114.715 109.648C113.107 109.648 111.756 109.328 110.558 108.703L110.527 108.718ZM118.327 105.455C119.116 104.631 119.51 103.411 119.51 101.779C119.51 98.47 117.902 96.8078 114.7 96.8078C113.092 96.8078 111.893 97.2195 111.104 98.043C110.315 98.8665 109.905 100.117 109.905 101.764C109.905 103.411 110.3 104.631 111.089 105.455C111.878 106.263 113.077 106.675 114.7 106.675C116.324 106.675 117.538 106.263 118.327 105.439V105.455Z" fill="white"/>
<path d="M124.761 109.39V94.1699H130.921C132.727 94.1699 134.229 94.5207 135.428 95.2374C136.627 95.9542 137.218 97.1437 137.218 98.806C137.218 99.721 137.021 100.514 136.611 101.185C136.202 101.856 135.61 102.39 134.806 102.802L138.508 109.42H134.927L131.741 103.564C131.559 103.595 131.27 103.61 130.876 103.61H127.886V109.451L124.761 109.39ZM132.955 100.468C133.395 100.361 133.683 100.178 133.835 99.9192C133.986 99.66 134.062 99.294 134.062 98.8212C134.062 98.379 133.971 98.0587 133.819 97.8147C133.668 97.5707 133.349 97.4182 132.894 97.2962C132.439 97.1895 131.771 97.1284 130.891 97.1284H127.902V100.621H131.027C131.892 100.621 132.545 100.56 132.985 100.453L132.955 100.468Z" fill="white"/>
<path d="M144.472 97.1889H139.054V94.1846H153.045V97.1889H147.597V109.435H144.472V97.1889Z" fill="white"/>
<path d="M156.838 108.032C155.7 106.95 155.124 105.318 155.093 103.152V94.1699H158.219V103.198C158.219 104.067 158.325 104.754 158.553 105.257C158.781 105.76 159.145 106.126 159.661 106.34C160.177 106.568 160.89 106.675 161.8 106.675C162.711 106.675 163.439 106.568 163.955 106.355C164.471 106.141 164.82 105.775 165.032 105.272C165.245 104.769 165.351 104.083 165.351 103.198V94.1699H168.447V103.168C168.447 105.333 167.855 106.95 166.686 108.032C165.518 109.115 163.879 109.649 161.77 109.649C159.661 109.649 157.976 109.1 156.838 108.017V108.032Z" fill="white"/>
<path d="M174.304 108.718C173.105 108.093 172.164 107.178 171.512 105.988C170.844 104.799 170.51 103.396 170.51 101.764C170.51 100.132 170.844 98.7293 171.512 97.5245C172.179 96.3198 173.12 95.4048 174.319 94.7795C175.518 94.1542 176.914 93.834 178.476 93.834C180.373 93.834 181.997 94.2915 183.332 95.1912C184.683 96.091 185.593 97.3568 186.079 98.9885H182.756C182.042 97.5398 180.616 96.8078 178.461 96.8078C176.853 96.8078 175.654 97.2195 174.865 98.043C174.076 98.8665 173.666 100.117 173.666 101.764C173.666 103.411 174.061 104.631 174.85 105.455C175.639 106.263 176.838 106.675 178.461 106.675C179.478 106.675 180.313 106.522 180.965 106.202C181.617 105.882 182.149 105.409 182.558 104.768V103.045H177.065V100.041L186.018 100.102V109.435H182.543V108.535C182.073 108.916 181.481 109.191 180.768 109.389C180.039 109.572 179.266 109.679 178.446 109.679C176.868 109.679 175.487 109.359 174.288 108.733L174.304 108.718Z" fill="white"/>
<path d="M195.365 94.1699H197.884L205.046 109.42H201.571L199.705 105.364H193.484L191.617 109.42H188.188L195.365 94.1699ZM198.354 102.42L196.579 98.5772L194.849 102.42H198.354Z" fill="white"/>
<path d="M206.776 94.1699H209.902V106.446H218.248V109.435H206.776V94.1852V94.1699Z" fill="white"/>
</g>
<defs>
<clipPath id="clip0_166_1527">
<rect width="225" height="109.664" fill="white"/>
</clipPath>
</defs>
</svg>
