<?xml version="1.0" encoding="UTF-8"?>
<svg id="Camada_1" data-name="Camada 1" xmlns="http://www.w3.org/2000/svg" viewBox="0 0 1247.24 637.8">
  <defs>
    <style>
      .cls-1, .cls-2, .cls-3 {
        stroke: #000;
        stroke-linecap: round;
        stroke-linejoin: round;
        stroke-width: 14.17px;
      }

      .cls-1, .cls-4 {
        fill: #e30613;
      }

      .cls-2, .cls-5 {
        fill: #2abbdd;
      }

      .cls-2, .cls-5, .cls-6 {
        fill-rule: evenodd;
      }

      .cls-3 {
        fill: none;
      }

      .cls-5, .cls-6, .cls-7, .cls-8, .cls-4 {
        stroke-width: 0px;
      }

      .cls-6 {
        fill: #f39200;
      }

      .cls-8 {
        fill: #221e1f;
      }
    </style>
  </defs>
  <g>
    <g>
      <g>
        <path class="cls-1" d="m146.36,427.97c-9.15-10.2-13.72-26.66-13.72-49.35v-22.17h44.6v28.24c0,11.26,3.6,16.89,10.82,16.89,4.05,0,6.86-1.19,8.45-3.56s2.38-6.38,2.38-12.01c0-7.39-.88-13.5-2.64-18.34-1.76-4.84-4-8.88-6.73-12.14-2.73-3.25-7.61-8.31-14.65-15.18l-19.53-19.53c-15.13-14.78-22.7-31.14-22.7-49.09,0-19.35,4.44-34.09,13.33-44.21,8.88-10.12,21.86-15.18,38.93-15.18,20.41,0,35.1,5.41,44.08,16.23,8.97,10.82,13.46,27.76,13.46,50.81h-46.19l-.26-15.57c0-2.99-.84-5.37-2.51-7.13-1.67-1.76-4-2.64-6.99-2.64-3.52,0-6.16.97-7.92,2.9-1.76,1.94-2.64,4.58-2.64,7.92,0,7.39,4.22,15.04,12.67,22.96l26.39,25.34c6.16,5.98,11.26,11.66,15.31,17.02,4.05,5.37,7.3,11.7,9.77,19,2.46,7.3,3.7,15.97,3.7,26,0,22.35-4.09,39.28-12.27,50.81-8.18,11.53-21.69,17.29-40.51,17.29-20.59,0-35.46-5.1-44.6-15.31Z"/>
        <path class="cls-1" d="m479.47,441.17l21.91-226.71h76.8l21.64,226.71h-43.02l-3.17-36.69h-27.45l-2.64,36.69h-44.08Zm50.15-72.84h20.59l-10.03-115.34h-2.11l-8.45,115.34Z"/>
        <path class="cls-1" d="m633.62,441.17v-183.16h-26.92v-43.55h99.24v43.55h-26.92v183.16h-45.4Z"/>
        <path class="cls-1" d="m731.33,214.46h69.68c11.08,0,19.66,2.51,25.73,7.52,6.07,5.01,10.16,12.05,12.27,21.11,2.11,9.06,3.17,20.63,3.17,34.71,0,12.85-1.67,22.88-5.01,30.09-3.34,7.22-9.15,12.23-17.42,15.04,6.86,1.41,11.83,4.84,14.91,10.29,3.08,5.46,4.62,12.85,4.62,22.17l-.53,85.78h-44.34v-88.68c0-6.33-1.23-10.38-3.7-12.14-2.47-1.76-6.95-2.64-13.46-2.64v103.46h-45.92v-226.71Zm57.01,83.93c6.33,0,9.5-6.86,9.5-20.59,0-5.98-.26-10.47-.79-13.46-.53-2.99-1.5-5.06-2.9-6.2-1.41-1.14-3.43-1.72-6.07-1.72h-10.56v41.96h10.82Z"/>
        <path class="cls-1" d="m865.07,441.17v-158.09h43.81v158.09h-43.81Z"/>
        <path class="cls-1" d="m936.02,214.46h59.91c18.12,0,31.05,5.85,38.8,17.55,7.74,11.7,11.61,28.81,11.61,51.33s-3.43,39.5-10.29,50.94c-6.86,11.44-19.18,17.16-36.95,17.16h-18.48v89.73h-44.6v-226.71Zm47.24,96.07c5.45,0,9.46-1.01,12.01-3.04,2.55-2.02,4.22-4.92,5.01-8.71.79-3.78,1.19-9.19,1.19-16.23,0-9.5-1.06-16.36-3.17-20.59-2.11-4.22-6.33-6.33-12.67-6.33h-5.01v54.9h2.64Z"/>
        <path class="cls-1" d="m1076.65,427.97c-9.15-10.2-13.72-26.66-13.72-49.35v-22.17h44.6v28.24c0,11.26,3.6,16.89,10.82,16.89,4.05,0,6.86-1.19,8.45-3.56s2.38-6.38,2.38-12.01c0-7.39-.88-13.5-2.64-18.34-1.76-4.84-4-8.88-6.73-12.14-2.73-3.25-7.61-8.31-14.65-15.18l-19.53-19.53c-15.13-14.78-22.7-31.14-22.7-49.09,0-19.35,4.44-34.09,13.33-44.21,8.88-10.12,21.86-15.18,38.93-15.18,20.41,0,35.1,5.41,44.08,16.23,8.97,10.82,13.46,27.76,13.46,50.81h-46.19l-.26-15.57c0-2.99-.84-5.37-2.51-7.13-1.67-1.76-4-2.64-6.99-2.64-3.52,0-6.16.97-7.92,2.9-1.76,1.94-2.64,4.58-2.64,7.92,0,7.39,4.22,15.04,12.67,22.96l26.39,25.34c6.16,5.98,11.26,11.66,15.31,17.02,4.05,5.37,7.3,11.7,9.77,19,2.46,7.3,3.7,15.97,3.7,26,0,22.35-4.09,39.28-12.27,50.81-8.18,11.53-21.69,17.29-40.51,17.29-20.59,0-35.46-5.1-44.6-15.31Z"/>
      </g>
      <g>
        <path class="cls-2" d="m406.9,350.61c-14.07,0-21.8-2.45-28.01-4.42-4.88-1.55-8.4-2.67-16.67-2.67s-11.78,1.12-16.65,2.66c-6.21,1.97-13.93,4.42-28,4.42s-21.8-2.45-28.01-4.42c-4.87-1.55-8.4-2.67-16.66-2.67v-37.51c14.07,0,21.8,2.45,28.01,4.42,4.88,1.55,8.4,2.67,16.66,2.67s11.78-1.12,16.65-2.66c6.21-1.97,13.93-4.42,28-4.42s21.81,2.45,28.02,4.42c4.88,1.55,8.4,2.67,16.66,2.67s11.79-1.12,16.67-2.67c6.21-1.97,13.94-4.42,28.01-4.42v37.51c-8.26,0-11.79,1.12-16.66,2.67-6.21,1.97-13.94,4.42-28.02,4.42Z"/>
        <path class="cls-2" d="m406.9,441.54c-14.07,0-21.8-2.45-28.01-4.42-4.88-1.55-8.4-2.67-16.67-2.67s-11.78,1.12-16.65,2.66c-6.21,1.97-13.93,4.42-28,4.42s-21.8-2.45-28.01-4.42c-4.87-1.55-8.4-2.67-16.66-2.67v-37.51c14.07,0,21.8,2.45,28.01,4.42,4.87,1.55,8.4,2.67,16.66,2.67s11.78-1.12,16.65-2.66c6.21-1.97,13.93-4.42,28-4.42s21.81,2.45,28.02,4.42c4.88,1.55,8.4,2.67,16.66,2.67s11.79-1.12,16.67-2.67c6.21-1.97,13.94-4.42,28.01-4.42v37.51c-8.26,0-11.79,1.12-16.66,2.67-6.21,1.97-13.94,4.42-28.02,4.42Z"/>
      </g>
    </g>
    <g>
      <path class="cls-6" d="m886.97,214.46c11.89,0,21.53,9.43,21.53,21.05s-9.64,21.05-21.53,21.05-21.54-9.43-21.54-21.05,9.65-21.05,21.54-21.05"/>
      <path class="cls-4" d="m886.97,214.46c11.89,0,21.53,9.43,21.53,21.05s-9.64,21.05-21.53,21.05-21.54-9.43-21.54-21.05,9.65-21.05,21.54-21.05"/>
      <path class="cls-3" d="m886.97,214.46c11.89,0,21.53,9.43,21.53,21.05s-9.64,21.05-21.53,21.05-21.54-9.43-21.54-21.05,9.65-21.05,21.54-21.05"/>
    </g>
    <path class="cls-2" d="m301.19,218.23c-1.99-4.71,8.4,2.67,16.66,2.67s11.78-1.12,16.65-2.66c6.21-1.97,13.93-4.42,28-4.42s21.81,2.45,28.02,4.42c4.88,1.55,8.4,2.67,16.66,2.67s11.79-1.12,16.67-2.67c6.21-1.97,13.94-4.42,28.01-4.42v37.51c-8.26,0-11.79,1.12-16.66,2.67-6.21,1.97-13.94,4.42-28.02,4.42s-21.8-2.45-28.01-4.42c-4.88-1.55-8.4-2.67-16.67-2.67s-11.78,1.12-16.65,2.66c-6.21,1.97-13.93,4.42-28,4.42s-21.8-2.45-28.01-4.42c0,0,21.29-12.18,11.35-35.75Z"/>
  </g>
  <g>
    <path class="cls-5" d="m231.15,102.5c2.16,2.84,4.54,5.54,6.44,8.54,3.49,5.52,6.36,11.47,10.13,16.78,4.67,6.57,9.92,12.74,15.04,18.97,11.06,13.47,18.44,28.64,21.38,45.87.67,3.95.78,7.99-.59,11.82-.74,2.07-1.72,4.24-3.18,5.82-1.81,1.97-1.8,3.52-.85,5.9,1.62,4.09,2.88,8.37,3.9,12.66.8,3.36-.4,6.31-3.12,8.58-2.96,2.46-7.57,2.6-10.77-.48-3.87-3.71-7.3-7.89-10.81-11.96-2.09-2.43-3.95-5.05-5.92-7.57-2.95-3.78-7.06-5.91-11.3-7.78-11.67-5.14-21.3-13.03-30.25-22.25-.8.49-1.61.95-2.39,1.46-7.26,4.73-15.16,7.27-23.87,6.68-6.4-.43-12.8-1.01-19.17-1.74-1.48-.17-3.22-.89-4.22-1.94-2.52-2.65-1.23-6.56,2.28-8.1,2.99-1.31,5.99-2.63,8.81-4.25,4.66-2.67,7.34-7.25,10.79-11.67-1.89-.71-3.51-1.37-5.17-1.93-9.31-3.15-40.83-5.44-61.47,19.64-1.15,1.39-3.63,8.68-2.42,9.97,2.55,2.71,5.17,5.4,7.33,8.4,4.2,5.83,5.61,12.6,5.68,19.67.02,2.01-.99,3.57-2.85,4.45-1.92.9-3.81.75-5.39-.68-5.05-4.55-10.88-7.6-17.32-9.7-2.25-.73-4.2-2.39-6.33-3.54-.59-.32-1.44-.61-2.01-.43-4.47,1.46-8.87,1.11-13.26-.29-.49-.16-1-.28-1.45-.5-6.26-3.01-12.25-1.69-18.15,1.11-.52.25-1.02.55-1.54.8-2.37,1.1-4.56.74-6.18-.99-1.57-1.67-1.95-4.11-.5-6.22,1.77-2.58,3.64-5.16,5.86-7.35,5.2-5.13,11.43-8.63,18.41-10.81,1.9-.59,3.74-1.36,5.65-1.91,14.4-2.94,30.95-31.34,46.65-48.45,15.69-17.12,38.72-27,63.65-27.48,5.69-.11,11.39.48,17.33.76-.64-1.71-1.16-3.65-2.07-5.37-1.55-2.94-3.21-5.85-5.11-8.57-1.27-1.82-1.5-3.57-.6-5.4.97-1.98,2.9-3.08,4.95-2.57,4.08,1.03,8.07,2.42,12.04,3.84,1.78.64,3.4,1.71,5.1,2.59,2.29,1.87,4.58,3.75,6.87,5.62Z"/>
    <path class="cls-7" d="m275.21,246.37c-3.82,0-7.64-1.44-10.6-4.28-3.5-3.36-6.6-6.99-9.6-10.51l-1.67-1.95c-1.56-1.81-2.95-3.66-4.31-5.44-.61-.8-1.21-1.6-1.83-2.4-1.85-2.38-4.65-3.93-8.57-5.65-9.79-4.31-18.94-10.66-28.45-19.79-8.22,4.75-16.85,6.85-25.68,6.26-6.49-.43-13.06-1.03-19.51-1.77-3.26-.37-6.46-1.91-8.54-4.1-2.69-2.82-3.8-6.59-3.04-10.34.8-3.99,3.65-7.4,7.61-9.14,2.74-1.2,5.57-2.44,8.12-3.9.8-.46,1.54-1.05,2.26-1.74-10.5-1.48-33.07-.77-48.86,18.12-.32.65-.76,1.88-1.06,2.95,2.06,2.19,4.13,4.48,6,7.08,4.63,6.42,6.92,14.19,7.02,23.74.05,4.78-2.54,8.87-6.92,10.93-4.58,2.16-9.5,1.47-13.16-1.83-3.99-3.59-8.82-6.28-14.77-8.22-2.32-.75-4.21-1.97-5.73-2.95-.19-.12-.38-.25-.57-.36-4.84,1.11-9.86.8-15.27-.93l-.26-.08c-.5-.15-1.27-.38-2.11-.78-3.41-1.64-6.9-1.31-12.04,1.12-.13.06-.27.14-.4.21-.39.21-.79.42-1.2.61-5.12,2.37-10.61,1.39-14.32-2.56-3.92-4.17-4.41-10.37-1.19-15.07,1.91-2.79,4.05-5.74,6.73-8.4,5.79-5.72,12.95-9.94,21.28-12.53.76-.24,1.52-.51,2.27-.78,1.11-.4,2.26-.81,3.51-1.17l.56-.14c7.36-1.5,18.65-16.08,27.72-27.8,4.94-6.38,10.06-12.99,15.11-18.5,16.88-18.41,41.94-29.26,68.74-29.77,1.97-.04,3.94,0,5.88.08-.47-.75-.94-1.45-1.41-2.12-2.77-3.98-3.18-8.45-1.14-12.59,2.48-5.02,7.83-7.62,13.04-6.31,4.46,1.12,8.72,2.61,12.69,4.04,1.79.64,3.28,1.48,4.6,2.22.45.25.9.51,1.36.75l.66.34,8.09,6.62.5.66c.64.84,1.3,1.67,1.96,2.5,1.63,2.04,3.31,4.16,4.83,6.55,1.51,2.39,2.9,4.82,4.23,7.18,1.88,3.31,3.66,6.43,5.68,9.29,3.73,5.25,8,10.42,12.13,15.42.87,1.05,1.74,2.1,2.61,3.16,12.14,14.78,19.84,31.33,22.89,49.18,1,5.87.71,10.91-.91,15.4-.72,2-1.87,4.84-3.87,7.34,1.52,3.92,2.82,8.18,3.97,13,1.41,5.89-.59,11.6-5.48,15.67-2.79,2.33-6.2,3.48-9.61,3.48Zm-62.82-67.96l3.94,4.06c9.67,9.97,18.58,16.54,28.02,20.7,4.99,2.2,10.15,4.92,14.03,9.91.66.85,1.31,1.7,1.96,2.56,1.28,1.69,2.48,3.28,3.75,4.75l1.7,1.98c2.9,3.4,5.65,6.61,8.64,9.49.69.66,1.3.17,1.33.14.94-.78.86-1.11.77-1.49-1.05-4.42-2.23-8.24-3.6-11.69-.75-1.88-3.02-7.61,2.22-13.31.37-.41.98-1.33,1.72-3.42.78-2.17.87-4.78.28-8.23-2.66-15.6-9.16-29.53-19.87-42.56-.86-1.04-1.72-2.08-2.58-3.13-4.29-5.19-8.73-10.57-12.76-16.24-2.44-3.44-4.48-7.02-6.45-10.49-1.31-2.31-2.56-4.5-3.89-6.6-1.1-1.75-2.48-3.47-3.93-5.3-.55-.69-1.09-1.37-1.63-2.07l-5.7-4.66c-.37-.2-.73-.4-1.1-.61-.92-.51-1.78-1-2.44-1.24-1.67-.6-3.38-1.21-5.12-1.78,1,1.7,1.84,3.26,2.5,4.5.9,1.7,1.46,3.34,1.95,4.79.16.48.32.95.49,1.4l3.79,10.08-10.76-.51c-1.93-.09-3.84-.21-5.73-.34-3.88-.25-7.55-.49-11.13-.42-22.94.44-44.29,9.61-58.56,25.18-4.66,5.08-9.59,11.45-14.36,17.6-12.02,15.52-23.38,30.19-35.76,32.93-.77.23-1.59.53-2.46.84-.94.34-1.88.67-2.83.97-6.15,1.92-11.38,4.97-15.54,9.09-.04.03-.07.07-.11.11,4.72-1.44,11.44-2.31,18.54,1.04.07.02.13.04.2.06.17.05.34.1.51.16,3.39,1.08,6.22,1.18,8.89.3,3.17-1.04,6.11.13,7.57.92,1.01.54,1.92,1.13,2.72,1.65.92.59,1.87,1.2,2.44,1.39,6.09,1.98,11.36,4.62,15.98,8-.56-4.34-1.88-7.86-4.04-10.85-1.66-2.31-3.74-4.5-5.93-6.82l-.81-.86c-5.67-6.01,1.18-18.21,2.1-19.33,22.03-26.76,56.15-26.27,69.22-21.84,1.25.42,2.43.88,3.67,1.36.55.21,1.12.43,1.72.66l9.02,3.39-5.93,7.6c-.68.87-1.32,1.74-1.96,2.6-2.77,3.75-5.91,8-10.89,10.85-1.1.63-2.21,1.22-3.32,1.77,4.19.41,8.4.76,12.58,1.04,6.71.45,13.11-1.37,19.53-5.55.61-.4,1.23-.77,1.86-1.14l5.55-3.37Zm-130.52,28.11s0,0,0,0c0,0,0,0,0,0Zm40.46-16.51s-.02.03-.04.04c.01-.01.02-.03.04-.04Zm44.05-3.33h0Z"/>
  </g>
  <g>
    <g>
      <g>
        <path class="cls-4" d="m146.36,427.97c-9.15-10.2-13.72-26.66-13.72-49.35v-22.17h44.6v28.24c0,11.26,3.6,16.89,10.82,16.89,4.05,0,6.86-1.19,8.45-3.56s2.38-6.38,2.38-12.01c0-7.39-.88-13.5-2.64-18.34-1.76-4.84-4-8.88-6.73-12.14-2.73-3.25-7.61-8.31-14.65-15.18l-19.53-19.53c-15.13-14.78-22.7-31.14-22.7-49.09,0-19.35,4.44-34.09,13.33-44.21,8.88-10.12,21.86-15.18,38.93-15.18,20.41,0,35.1,5.41,44.08,16.23,8.97,10.82,13.46,27.76,13.46,50.81h-46.19l-.26-15.57c0-2.99-.84-5.37-2.51-7.13-1.67-1.76-4-2.64-6.99-2.64-3.52,0-6.16.97-7.92,2.9-1.76,1.94-2.64,4.58-2.64,7.92,0,7.39,4.22,15.04,12.67,22.96l26.39,25.34c6.16,5.98,11.26,11.66,15.31,17.02,4.05,5.37,7.3,11.7,9.77,19,2.46,7.3,3.7,15.97,3.7,26,0,22.35-4.09,39.28-12.27,50.81-8.18,11.53-21.69,17.29-40.51,17.29-20.59,0-35.46-5.1-44.6-15.31Z"/>
        <path class="cls-4" d="m479.47,441.17l21.91-226.71h76.8l21.64,226.71h-43.02l-3.17-36.69h-27.45l-2.64,36.69h-44.08Zm50.15-72.84h20.59l-10.03-115.34h-2.11l-8.45,115.34Z"/>
        <path class="cls-4" d="m633.62,441.17v-183.16h-26.92v-43.55h99.24v43.55h-26.92v183.16h-45.4Z"/>
        <path class="cls-4" d="m731.33,214.46h69.68c11.08,0,19.66,2.51,25.73,7.52,6.07,5.01,10.16,12.05,12.27,21.11,2.11,9.06,3.17,20.63,3.17,34.71,0,12.85-1.67,22.88-5.01,30.09-3.34,7.22-9.15,12.23-17.42,15.04,6.86,1.41,11.83,4.84,14.91,10.29,3.08,5.46,4.62,12.85,4.62,22.17l-.53,85.78h-44.34v-88.68c0-6.33-1.23-10.38-3.7-12.14-2.47-1.76-6.95-2.64-13.46-2.64v103.46h-45.92v-226.71Zm57.01,83.93c6.33,0,9.5-6.86,9.5-20.59,0-5.98-.26-10.47-.79-13.46-.53-2.99-1.5-5.06-2.9-6.2-1.41-1.14-3.43-1.72-6.07-1.72h-10.56v41.96h10.82Z"/>
        <path class="cls-4" d="m865.07,441.17v-158.09h43.81v158.09h-43.81Z"/>
        <path class="cls-4" d="m936.02,214.46h59.91c18.12,0,31.05,5.85,38.8,17.55,7.74,11.7,11.61,28.81,11.61,51.33s-3.43,39.5-10.29,50.94c-6.86,11.44-19.18,17.16-36.95,17.16h-18.48v89.73h-44.6v-226.71Zm47.24,96.07c5.45,0,9.46-1.01,12.01-3.04,2.55-2.02,4.22-4.92,5.01-8.71.79-3.78,1.19-9.19,1.19-16.23,0-9.5-1.06-16.36-3.17-20.59-2.11-4.22-6.33-6.33-12.67-6.33h-5.01v54.9h2.64Z"/>
        <path class="cls-4" d="m1076.65,427.97c-9.15-10.2-13.72-26.66-13.72-49.35v-22.17h44.6v28.24c0,11.26,3.6,16.89,10.82,16.89,4.05,0,6.86-1.19,8.45-3.56s2.38-6.38,2.38-12.01c0-7.39-.88-13.5-2.64-18.34-1.76-4.84-4-8.88-6.73-12.14-2.73-3.25-7.61-8.31-14.65-15.18l-19.53-19.53c-15.13-14.78-22.7-31.14-22.7-49.09,0-19.35,4.44-34.09,13.33-44.21,8.88-10.12,21.86-15.18,38.93-15.18,20.41,0,35.1,5.41,44.08,16.23,8.97,10.82,13.46,27.76,13.46,50.81h-46.19l-.26-15.57c0-2.99-.84-5.37-2.51-7.13-1.67-1.76-4-2.64-6.99-2.64-3.52,0-6.16.97-7.92,2.9-1.76,1.94-2.64,4.58-2.64,7.92,0,7.39,4.22,15.04,12.67,22.96l26.39,25.34c6.16,5.98,11.26,11.66,15.31,17.02,4.05,5.37,7.3,11.7,9.77,19,2.46,7.3,3.7,15.97,3.7,26,0,22.35-4.09,39.28-12.27,50.81-8.18,11.53-21.69,17.29-40.51,17.29-20.59,0-35.46-5.1-44.6-15.31Z"/>
      </g>
      <g>
        <path class="cls-5" d="m406.9,350.61c-14.07,0-21.8-2.45-28.01-4.42-4.88-1.55-8.4-2.67-16.67-2.67s-11.78,1.12-16.65,2.66c-6.21,1.97-13.93,4.42-28,4.42s-21.8-2.45-28.01-4.42c-4.87-1.55-8.4-2.67-16.66-2.67v-37.51c14.07,0,21.8,2.45,28.01,4.42,4.88,1.55,8.4,2.67,16.66,2.67s11.78-1.12,16.65-2.66c6.21-1.97,13.93-4.42,28-4.42s21.81,2.45,28.02,4.42c4.88,1.55,8.4,2.67,16.66,2.67s11.79-1.12,16.67-2.67c6.21-1.97,13.94-4.42,28.01-4.42v37.51c-8.26,0-11.79,1.12-16.66,2.67-6.21,1.97-13.94,4.42-28.02,4.42Z"/>
        <path class="cls-5" d="m406.9,441.54c-14.07,0-21.8-2.45-28.01-4.42-4.88-1.55-8.4-2.67-16.67-2.67s-11.78,1.12-16.65,2.66c-6.21,1.97-13.93,4.42-28,4.42s-21.8-2.45-28.01-4.42c-4.87-1.55-8.4-2.67-16.66-2.67v-37.51c14.07,0,21.8,2.45,28.01,4.42,4.87,1.55,8.4,2.67,16.66,2.67s11.78-1.12,16.65-2.66c6.21-1.97,13.93-4.42,28-4.42s21.81,2.45,28.02,4.42c4.88,1.55,8.4,2.67,16.66,2.67s11.79-1.12,16.67-2.67c6.21-1.97,13.94-4.42,28.01-4.42v37.51c-8.26,0-11.79,1.12-16.66,2.67-6.21,1.97-13.94,4.42-28.02,4.42Z"/>
      </g>
    </g>
    <g>
      <path class="cls-6" d="m886.97,214.46c11.89,0,21.53,9.43,21.53,21.05s-9.64,21.05-21.53,21.05-21.54-9.43-21.54-21.05,9.65-21.05,21.54-21.05"/>
      <path class="cls-4" d="m886.97,214.46c11.89,0,21.53,9.43,21.53,21.05s-9.64,21.05-21.53,21.05-21.54-9.43-21.54-21.05,9.65-21.05,21.54-21.05"/>
    </g>
    <path class="cls-5" d="m301.19,218.23c-1.99-4.71,8.4,2.67,16.66,2.67s11.78-1.12,16.65-2.66c6.21-1.97,13.93-4.42,28-4.42s21.81,2.45,28.02,4.42c4.88,1.55,8.4,2.67,16.66,2.67s11.79-1.12,16.67-2.67c6.21-1.97,13.94-4.42,28.01-4.42v37.51c-8.26,0-11.79,1.12-16.66,2.67-6.21,1.97-13.94,4.42-28.02,4.42s-21.8-2.45-28.01-4.42c-4.88-1.55-8.4-2.67-16.67-2.67s-11.78,1.12-16.65,2.66c-6.21,1.97-13.93,4.42-28,4.42s-21.8-2.45-28.01-4.42c0,0,21.29-12.18,11.35-35.75Z"/>
  </g>
  <path class="cls-5" d="m231.15,102.5c2.16,2.84,4.54,5.54,6.44,8.54,3.49,5.52,6.36,11.47,10.13,16.78,4.67,6.57,9.92,12.74,15.04,18.97,11.06,13.47,18.44,28.64,21.38,45.87.67,3.95.78,7.99-.59,11.82-.74,2.07-1.72,4.24-3.18,5.82-1.81,1.97-1.8,3.52-.85,5.9,1.62,4.09,2.88,8.37,3.9,12.66.8,3.36-.4,6.31-3.12,8.58-2.96,2.46-7.57,2.6-10.77-.48-3.87-3.71-7.3-7.89-10.81-11.96-2.09-2.43-3.95-5.05-5.92-7.57-2.95-3.78-7.06-5.91-11.3-7.78-11.67-5.14-21.3-13.03-30.25-22.25-.8.49-1.61.95-2.39,1.46-7.26,4.73-15.16,7.27-23.87,6.68-6.4-.43-12.8-1.01-19.17-1.74-1.48-.17-3.22-.89-4.22-1.94-2.52-2.65-1.23-6.56,2.28-8.1,2.99-1.31,5.99-2.63,8.81-4.25,4.66-2.67,7.34-7.25,10.79-11.67-1.89-.71-3.51-1.37-5.17-1.93-9.31-3.15-40.83-5.44-61.47,19.64-1.15,1.39-3.63,8.68-2.42,9.97,2.55,2.71,5.17,5.4,7.33,8.4,4.2,5.83,5.61,12.6,5.68,19.67.02,2.01-.99,3.57-2.85,4.45-1.92.9-3.81.75-5.39-.68-5.05-4.55-10.88-7.6-17.32-9.7-2.25-.73-4.2-2.39-6.33-3.54-.59-.32-1.44-.61-2.01-.43-4.47,1.46-8.87,1.11-13.26-.29-.49-.16-1-.28-1.45-.5-6.26-3.01-12.25-1.69-18.15,1.11-.52.25-1.02.55-1.54.8-2.37,1.1-4.56.74-6.18-.99-1.57-1.67-1.95-4.11-.5-6.22,1.77-2.58,3.64-5.16,5.86-7.35,5.2-5.13,11.43-8.63,18.41-10.81,1.9-.59,3.74-1.36,5.65-1.91,14.4-2.94,30.95-31.34,46.65-48.45,15.69-17.12,38.72-27,63.65-27.48,5.69-.11,11.39.48,17.33.76-.64-1.71-1.16-3.65-2.07-5.37-1.55-2.94-3.21-5.85-5.11-8.57-1.27-1.82-1.5-3.57-.6-5.4.97-1.98,2.9-3.08,4.95-2.57,4.08,1.03,8.07,2.42,12.04,3.84,1.78.64,3.4,1.71,5.1,2.59,2.29,1.87,4.58,3.75,6.87,5.62Z"/>
  <g>
    <path class="cls-8" d="m268.03,489.25c0,.38-.21.59-.59.59h-11.41v31.45c0,.38-.21.59-.59.59h-4.93c-.38,0-.59-.21-.59-.59v-31.45h-11.36c-.38,0-.59-.21-.59-.59v-4.23c0-.38.21-.59.59-.59h28.88c.38,0,.59.21.59.59v4.23Z"/>
    <path class="cls-8" d="m286.62,491.87c0,2.57-.27,4.29-.86,6.11-.21.59.11.96.75.48,1.82-1.98,4.12-3.11,7.18-3.11,6.11,0,9.8,3.8,9.8,10.12v15.8c0,.38-.21.59-.59.59h-4.77c-.38,0-.59-.21-.59-.59v-15.16c0-3.43-1.77-5.41-4.66-5.41-4.34,0-6.21,3.43-6.27,8.09v12.48c0,.38-.21.59-.59.59h-4.77c-.38,0-.59-.21-.59-.59v-37.23c0-.38.21-.59.59-.59h4.77c.38,0,.59.21.59.59v7.82Z"/>
    <path class="cls-8" d="m334.2,521.77c-1.93.48-3.75.7-5.46.7-8.09,0-12.64-5.25-12.64-13.55s4.61-13.55,12.43-13.55c6.43,0,10.34,3.21,10.34,8.52,0,4.12-2.52,6.48-7.88,7.29l-8.41,1.29c.59,2.84,2.73,4.61,6.11,4.61,1.5,0,3.11-.16,4.23-.54l2.36-.59c.38-.11.64.05.75.43l1.07,4.02c.11.38-.05.64-.43.75l-2.46.64Zm-4.13-15.21c1.88-.32,2.89-1.18,2.89-2.57,0-2.14-1.66-3.27-4.55-3.27-3.54,0-5.95,2.2-6.38,7.12l8.04-1.29Z"/>
    <path class="cls-8" d="m398.65,518.88c0,.38-.16.59-.48.7l-2.3.75-2.62.91c-2.84.91-4.66,1.23-7.88,1.23-10.23,0-16.39-7.45-16.39-19.29s6.16-19.29,16.39-19.29c3,0,5.04.38,7.88,1.29l2.46.86c.38.16.54.43.38.75l-1.5,4.02c-.16.38-.43.48-.75.38l-2.36-.8c-2.09-.7-3.7-.96-6.11-.96-6.43,0-10.23,5.14-10.23,13.77s3.8,13.71,10.23,13.71c2.25,0,4.02-.21,5.95-.86l1.5-.48v-8.09h-6.48c-.43,0-.64-.27-.54-.64l1.18-4.29c.11-.32.32-.48.7-.48h10.39c.38,0,.59.21.59.59v16.23Z"/>
    <path class="cls-8" d="m427.64,500.12c0,.38-.21.59-.59.59-5.84.27-8.41,4.34-8.41,14.2v6.38c0,.38-.21.59-.59.59h-4.77c-.38,0-.59-.21-.59-.59v-24.8c0-.38.21-.59.59-.59h2.68c.38,0,.59.16.7.48l.86,3.05c.32.59.59.7,1.07.16,2.14-2.79,4.55-4.13,8.46-4.23.38,0,.59.21.59.59v4.18Z"/>
    <path class="cls-8" d="m457.06,521.77c-1.93.48-3.75.7-5.46.7-8.09,0-12.64-5.25-12.64-13.55s4.61-13.55,12.43-13.55c6.43,0,10.34,3.21,10.34,8.52,0,4.12-2.52,6.48-7.88,7.29l-8.41,1.29c.59,2.84,2.73,4.61,6.11,4.61,1.5,0,3.11-.16,4.23-.54l2.36-.59c.38-.11.64.05.75.43l1.07,4.02c.11.38-.05.64-.43.75l-2.46.64Zm-4.13-15.21c1.88-.32,2.89-1.18,2.89-2.57,0-2.14-1.66-3.27-4.55-3.27-3.54,0-5.95,2.2-6.38,7.12l8.04-1.29Z"/>
    <path class="cls-8" d="m477.31,496.16c1.82-.54,3.64-.8,5.84-.8,7.23,0,11.68,3.75,11.68,10.23v15.7c0,.38-.21.59-.59.59h-2.68c-.38,0-.59-.16-.7-.48l-.43-1.66c-.32-.75-.64-.75-1.34-.11-1.66,1.82-4.07,2.84-7.34,2.84-5.95,0-9.27-3.05-9.27-8.09s3.43-8.25,9.75-8.25h6.7v-.32c0-3.27-2.09-5.04-6.05-5.04-1.55,0-2.89.16-4.18.54l-1.93.59c-.38.11-.64-.05-.75-.43l-1.18-3.96c-.11-.38.05-.64.43-.75l2.04-.59Zm4.93,14.63c-2.62,0-3.86,1.23-3.86,3.05,0,2.09,1.45,3.38,4.02,3.38,4.23,0,6.54-2.09,6.54-6.05v-.38h-6.7Z"/>
    <path class="cls-8" d="m522.21,495.89c.38,0,.59.21.59.59v4.12c0,.38-.21.59-.59.59h-6v13.02c0,1.82.8,2.84,2.09,2.84.48,0,.96-.05,1.39-.21.38-.16.64-.11.8.27l1.71,3.64c.16.32.05.59-.27.8-.96.54-2.36.91-3.64.91-5.09,0-8.04-3.05-8.04-8.25v-13.02h-2.62c-.38,0-.59-.21-.59-.59v-4.12c0-.38.21-.59.59-.59h2.62v-6.16c0-.32.16-.54.48-.64l4.77-1.61c.43-.11.7.05.7.48v7.93h6Z"/>
    <path class="cls-8" d="m585.54,503.12c0,11.89-6.21,19.34-16.29,19.34s-16.29-7.45-16.29-19.34,6.16-19.23,16.29-19.23,16.29,7.39,16.29,19.23Zm-26.41,0c0,8.57,3.75,13.77,10.12,13.77s10.07-5.2,10.07-13.77-3.75-13.71-10.07-13.71-10.12,5.09-10.12,13.71Z"/>
    <path class="cls-8" d="m615.17,521.77c-1.61.43-3.32.7-4.98.7-8.2,0-12.7-5.25-12.7-13.61s4.45-13.5,12.86-13.5c1.39,0,2.95.16,4.61.64l2.3.64c.38.11.54.38.43.75l-1.23,4.02c-.11.32-.38.48-.7.38l-1.82-.48c-1.34-.43-2.62-.59-3.59-.59-4.77,0-6.96,3.05-6.96,8.09s2.3,8.25,6.86,8.25c1.13,0,2.63-.21,3.96-.59l1.77-.54c.38-.11.64.05.75.38l1.23,4.02c.11.38-.05.64-.43.75l-2.36.7Z"/>
    <path class="cls-8" d="m647.26,521.77c-1.93.48-3.75.7-5.46.7-8.09,0-12.64-5.25-12.64-13.55s4.61-13.55,12.43-13.55c6.43,0,10.34,3.21,10.34,8.52,0,4.12-2.52,6.48-7.88,7.29l-8.41,1.29c.59,2.84,2.73,4.61,6.11,4.61,1.5,0,3.11-.16,4.23-.54l2.36-.59c.38-.11.64.05.75.43l1.07,4.02c.11.38-.05.64-.43.75l-2.46.64Zm-4.12-15.21c1.88-.32,2.89-1.18,2.89-2.57,0-2.14-1.66-3.27-4.55-3.27-3.54,0-5.95,2.2-6.38,7.12l8.04-1.29Z"/>
    <path class="cls-8" d="m667.52,496.16c1.82-.54,3.64-.8,5.84-.8,7.23,0,11.68,3.75,11.68,10.23v15.7c0,.38-.21.59-.59.59h-2.68c-.38,0-.59-.16-.7-.48l-.43-1.66c-.32-.75-.64-.75-1.34-.11-1.66,1.82-4.07,2.84-7.34,2.84-5.95,0-9.27-3.05-9.27-8.09s3.43-8.25,9.75-8.25h6.7v-.32c0-3.27-2.09-5.04-6.05-5.04-1.55,0-2.89.16-4.18.54l-1.93.59c-.38.11-.64-.05-.75-.43l-1.18-3.96c-.11-.38.05-.64.43-.75l2.04-.59Zm4.93,14.63c-2.62,0-3.86,1.23-3.86,3.05,0,2.09,1.45,3.38,4.02,3.38,4.23,0,6.54-2.09,6.54-6.05v-.38h-6.7Z"/>
    <path class="cls-8" d="m703.2,498.57c.32.64.64.59,1.23.05,2.09-2.36,4.77-3.27,7.39-3.27,6.11,0,9.8,3.8,9.8,10.12v15.8c0,.38-.21.59-.59.59h-4.77c-.38,0-.59-.21-.59-.59v-15.16c0-3.38-1.77-5.41-4.66-5.41-3.96,0-6.27,2.89-6.27,8.09v12.48c0,.38-.21.59-.59.59h-4.77c-.38,0-.59-.21-.59-.59v-24.8c0-.38.21-.59.59-.59h2.68c.38,0,.59.16.64.54l.48,2.14Z"/>
    <path class="cls-8" d="m775.1,499.96c.38,0,.59.21.59.59v4.18c0,.38-.21.59-.59.59h-14.89v11.14h19.07c.38,0,.59.21.59.59v4.23c0,.38-.21.59-.59.59h-24.54c-.38,0-.59-.21-.59-.59v-36.27c0-.38.21-.59.59-.59h24.54c.43,0,.64.27.54.64l-1.18,4.29c-.11.32-.32.48-.7.48h-17.73v10.13h14.89Z"/>
    <path class="cls-8" d="m809.77,505.8c-.8,1.29-1.66,2.25-2.52,2.68-.27.11-.27.32-.05.43,1.02.64,1.77,1.39,2.57,2.84l5.95,9.43c.21.38.05.7-.43.7h-5.3c-.32,0-.54-.11-.75-.38l-4.98-8.09c-.32-.43-.54-.43-.86,0l-4.98,8.09c-.21.27-.43.38-.75.38h-5.3c-.48,0-.64-.32-.43-.7l5.95-9.43c.86-1.39,1.61-2.25,2.57-2.84.11-.05.16-.11.16-.16.05-.27-.32-.32-.48-.48-.75-.54-1.61-1.45-2.25-2.46l-5.79-9.21c-.21-.38-.05-.7.43-.7h5.25c.32,0,.54.11.75.38l4.88,7.98c.27.43.59.43.86,0l4.88-7.98c.21-.27.43-.38.75-.38h5.25c.48,0,.64.32.43.7l-5.79,9.21Z"/>
    <path class="cls-8" d="m833.24,498.62c.21.59.64.54,1.02.05,2.09-2.36,4.61-3.32,7.5-3.32,7.02,0,11.25,5.2,11.25,13.5s-4.5,13.61-12,13.61c-1.93,0-3.32-.32-4.88-1.02l-1.45-.64v12c0,.38-.21.59-.59.59h-4.77c-.38,0-.59-.21-.59-.59v-36.32c0-.38.21-.59.59-.59h2.68c.38,0,.59.16.64.48l.59,2.25Zm3,17.52c1.29.64,2.79.91,4.39.91,4.13,0,6.48-3.05,6.48-8.2s-2.36-8.14-6.32-8.14-6.16,3.32-6.16,7.98v6.7l1.61.75Z"/>
    <path class="cls-8" d="m882.69,521.77c-1.93.48-3.75.7-5.46.7-8.09,0-12.64-5.25-12.64-13.55s4.61-13.55,12.43-13.55c6.43,0,10.34,3.21,10.34,8.52,0,4.12-2.52,6.48-7.88,7.29l-8.41,1.29c.59,2.84,2.73,4.61,6.11,4.61,1.5,0,3.11-.16,4.23-.54l2.36-.59c.38-.11.64.05.75.43l1.07,4.02c.11.38-.05.64-.43.75l-2.46.64Zm-4.12-15.21c1.88-.32,2.89-1.18,2.89-2.57,0-2.14-1.66-3.27-4.55-3.27-3.54,0-5.95,2.2-6.38,7.12l8.04-1.29Z"/>
    <path class="cls-8" d="m915.16,500.12c0,.38-.21.59-.59.59-5.84.27-8.41,4.34-8.41,14.2v6.38c0,.38-.21.59-.59.59h-4.77c-.38,0-.59-.21-.59-.59v-24.8c0-.38.21-.59.59-.59h2.68c.38,0,.59.16.7.48l.86,3.05c.32.59.59.7,1.07.16,2.14-2.79,4.55-4.13,8.46-4.23.38,0,.59.21.59.59v4.18Z"/>
    <path class="cls-8" d="m936.11,521.29c0,.38-.21.59-.59.59h-4.77c-.38,0-.59-.21-.59-.59v-20.09h-2.62c-.38,0-.59-.21-.59-.59v-4.12c0-.38.21-.59.59-.59h7.98c.38,0,.59.21.59.59v24.8Zm-.05-34.66c0,2.3-1.29,3.64-3.54,3.64s-3.59-1.34-3.59-3.64,1.34-3.59,3.59-3.59,3.54,1.34,3.54,3.59Z"/>
    <path class="cls-8" d="m967.07,521.77c-1.93.48-3.75.7-5.46.7-8.09,0-12.64-5.25-12.64-13.55s4.61-13.55,12.43-13.55c6.43,0,10.34,3.21,10.34,8.52,0,4.12-2.52,6.48-7.88,7.29l-8.41,1.29c.59,2.84,2.73,4.61,6.11,4.61,1.5,0,3.11-.16,4.23-.54l2.36-.59c.38-.11.64.05.75.43l1.07,4.02c.11.38-.05.64-.43.75l-2.46.64Zm-4.12-15.21c1.88-.32,2.89-1.18,2.89-2.57,0-2.14-1.66-3.27-4.55-3.27-3.54,0-5.95,2.2-6.38,7.12l8.04-1.29Z"/>
    <path class="cls-8" d="m988.99,498.57c.32.64.64.59,1.23.05,2.09-2.36,4.77-3.27,7.39-3.27,6.11,0,9.8,3.8,9.8,10.12v15.8c0,.38-.21.59-.59.59h-4.77c-.38,0-.59-.21-.59-.59v-15.16c0-3.38-1.77-5.41-4.66-5.41-3.96,0-6.27,2.89-6.27,8.09v12.48c0,.38-.21.59-.59.59h-4.77c-.38,0-.59-.21-.59-.59v-24.8c0-.38.21-.59.59-.59h2.68c.38,0,.59.16.64.54l.48,2.14Z"/>
    <path class="cls-8" d="m1037.69,521.77c-1.61.43-3.32.7-4.98.7-8.2,0-12.7-5.25-12.7-13.61s4.45-13.5,12.86-13.5c1.39,0,2.95.16,4.61.64l2.3.64c.38.11.54.38.43.75l-1.23,4.02c-.11.32-.38.48-.7.38l-1.82-.48c-1.34-.43-2.62-.59-3.59-.59-4.77,0-6.96,3.05-6.96,8.09s2.3,8.25,6.86,8.25c1.13,0,2.63-.21,3.96-.59l1.77-.54c.38-.11.64.05.75.38l1.23,4.02c.11.38-.05.64-.43.75l-2.36.7Z"/>
    <path class="cls-8" d="m1069.79,521.77c-1.93.48-3.75.7-5.46.7-8.09,0-12.64-5.25-12.64-13.55s4.61-13.55,12.43-13.55c6.43,0,10.34,3.21,10.34,8.52,0,4.12-2.52,6.48-7.88,7.29l-8.41,1.29c.59,2.84,2.73,4.61,6.11,4.61,1.5,0,3.11-.16,4.23-.54l2.36-.59c.38-.11.64.05.75.43l1.07,4.02c.11.38-.05.64-.43.75l-2.46.64Zm-4.12-15.21c1.88-.32,2.89-1.18,2.89-2.57,0-2.14-1.66-3.27-4.55-3.27-3.54,0-5.95,2.2-6.38,7.12l8.04-1.29Z"/>
  </g>
</svg>